<svg width="300" height="84" viewBox="0 0 300 84" fill="none" xmlns="http://www.w3.org/2000/svg">
<path d="M134.877 6.81818C134.877 10.5838 131.827 13.6364 128.065 13.6364C124.304 13.6364 121.254 10.5838 121.254 6.81818C121.254 3.0526 124.304 0 128.065 0C131.827 0 134.877 3.0526 134.877 6.81818Z" fill="white"/>
<path d="M131.471 72.7273C131.471 74.6101 129.946 76.1364 128.065 76.1364C126.185 76.1364 124.66 74.6101 124.66 72.7273V19.3182H131.471V72.7273Z" fill="white"/>
<path d="M111.626 49.9091C109.91 49.9091 108.316 49.6227 106.845 49.05C105.373 48.4773 104.106 47.6727 103.044 46.6364C102.009 45.6273 101.259 44.4273 100.796 43.0364L106.477 41.0318C106.776 42.0682 107.389 42.8864 108.316 43.4864C109.242 44.0864 110.346 44.3864 111.626 44.3864C112.634 44.3864 113.506 44.1955 114.242 43.8136C114.977 43.4591 115.536 42.9273 115.917 42.2182C116.326 41.5091 116.53 40.6773 116.53 39.7227V34.6091L117.715 36.0818C116.952 37.3364 115.972 38.2773 114.773 38.9045C113.574 39.5045 112.171 39.8045 110.563 39.8045C108.493 39.8045 106.64 39.3409 105.005 38.4136C103.371 37.4591 102.09 36.1636 101.164 34.5273C100.238 32.8636 99.7744 30.9818 99.7744 28.8818C99.7744 26.7818 100.238 24.9273 101.164 23.3182C102.09 21.6818 103.357 20.4 104.965 19.4727C106.572 18.5455 108.397 18.0818 110.441 18.0818C112.048 18.0818 113.451 18.4091 114.65 19.0636C115.849 19.6909 116.871 20.6591 117.715 21.9682L116.939 23.4409V18.5727H122.66V39.7227C122.66 41.6864 122.183 43.4318 121.23 44.9591C120.276 46.5136 118.969 47.7273 117.307 48.6C115.672 49.4727 113.778 49.9091 111.626 49.9091ZM111.422 34.2409C112.457 34.2409 113.356 34.0227 114.119 33.5864C114.882 33.15 115.468 32.5364 115.876 31.7455C116.312 30.9545 116.53 30.0273 116.53 28.9636C116.53 27.9 116.312 26.9727 115.876 26.1818C115.44 25.3636 114.841 24.7364 114.078 24.3C113.315 23.8364 112.43 23.6045 111.422 23.6045C110.386 23.6045 109.46 23.8364 108.643 24.3C107.853 24.7364 107.226 25.3636 106.763 26.1818C106.327 26.9727 106.109 27.9 106.109 28.9636C106.109 30 106.327 30.9136 106.763 31.7045C107.226 32.4955 107.853 33.1227 108.643 33.5864C109.46 34.0227 110.386 34.2409 111.422 34.2409Z" fill="white"/>
<path d="M83.754 41.4C82.1466 41.4 80.757 41.1409 79.5855 40.6227C78.414 40.1045 77.5149 39.3682 76.8883 38.4136C76.2616 37.4318 75.9483 36.2727 75.9483 34.9364C75.9483 33.6818 76.2344 32.5773 76.8065 31.6227C77.3787 30.6409 78.2505 29.8227 79.422 29.1682C80.6208 28.5136 82.1057 28.05 83.8766 27.7773L90.7015 26.6727V31.1727L84.98 32.1955C84.1082 32.3591 83.4407 32.6455 82.9775 33.0545C82.5144 33.4364 82.2828 33.9955 82.2828 34.7318C82.2828 35.4136 82.5416 35.9455 83.0593 36.3273C83.5769 36.7091 84.2172 36.9 84.98 36.9C85.9881 36.9 86.8736 36.6818 87.6364 36.2455C88.3993 35.8091 88.9851 35.2227 89.3937 34.4864C89.8297 33.7227 90.0476 32.8909 90.0476 31.9909V26.1818C90.0476 25.3364 89.7071 24.6273 89.0259 24.0545C88.3721 23.4818 87.473 23.1955 86.3287 23.1955C85.2389 23.1955 84.2717 23.4955 83.4271 24.0955C82.6097 24.6955 82.0103 25.4864 81.6289 26.4682L76.7248 24.1364C77.1607 22.8818 77.8555 21.8045 78.809 20.9045C79.7626 20.0045 80.9069 19.3091 82.2419 18.8182C83.5769 18.3273 85.0345 18.0818 86.6147 18.0818C88.4946 18.0818 90.1566 18.4227 91.6006 19.1045C93.0446 19.7864 94.1616 20.7409 94.9517 21.9682C95.7691 23.1682 96.1778 24.5727 96.1778 26.1818V40.9091H90.4563V37.3091L91.8458 37.0636C91.1919 38.0455 90.4699 38.8636 89.6798 39.5182C88.8897 40.1455 88.0042 40.6091 87.0234 40.9091C86.0426 41.2364 84.9528 41.4 83.754 41.4Z" fill="white"/>
<path d="M61.2998 49.9091C59.5834 49.9091 57.9895 49.6227 56.5183 49.05C55.0471 48.4773 53.7802 47.6727 52.7176 46.6364C51.6823 45.6273 50.9331 44.4273 50.4699 43.0364L56.1505 41.0318C56.4502 42.0682 57.0632 42.8864 57.9895 43.4864C58.9159 44.0864 60.0193 44.3864 61.2998 44.3864C62.3079 44.3864 63.1797 44.1955 63.9153 43.8136C64.651 43.4591 65.2095 42.9273 65.5909 42.2182C65.9996 41.5091 66.2039 40.6773 66.2039 39.7227V34.6091L67.3891 36.0818C66.6262 37.3364 65.6454 38.2773 64.4466 38.9045C63.2478 39.5045 61.8447 39.8045 60.2373 39.8045C58.1666 39.8045 56.314 39.3409 54.6793 38.4136C53.0446 37.4591 51.764 36.1636 50.8377 34.5273C49.9114 32.8636 49.4482 30.9818 49.4482 28.8818C49.4482 26.7818 49.9114 24.9273 50.8377 23.3182C51.764 21.6818 53.0309 20.4 54.6384 19.4727C56.2459 18.5455 58.0713 18.0818 60.1147 18.0818C61.7221 18.0818 63.1252 18.4091 64.324 19.0636C65.5228 19.6909 66.5445 20.6591 67.3891 21.9682L66.6126 23.4409V18.5727H72.3341V39.7227C72.3341 41.6864 71.8573 43.4318 70.9037 44.9591C69.9501 46.5136 68.6424 47.7273 66.9804 48.6C65.3457 49.4727 63.4522 49.9091 61.2998 49.9091ZM61.0955 34.2409C62.1308 34.2409 63.0299 34.0227 63.7927 33.5864C64.5556 33.15 65.1414 32.5364 65.55 31.7455C65.986 30.9545 66.2039 30.0273 66.2039 28.9636C66.2039 27.9 65.986 26.9727 65.55 26.1818C65.1141 25.3636 64.5147 24.7364 63.7519 24.3C62.989 23.8364 62.1035 23.6045 61.0955 23.6045C60.0602 23.6045 59.1338 23.8364 58.3165 24.3C57.5264 24.7364 56.8997 25.3636 56.4366 26.1818C56.0006 26.9727 55.7827 27.9 55.7827 28.9636C55.7827 30 56.0006 30.9136 56.4366 31.7045C56.8997 32.4955 57.5264 33.1227 58.3165 33.5864C59.1338 34.0227 60.0602 34.2409 61.0955 34.2409Z" fill="white"/>
<path d="M25.8826 40.9091V18.5727H31.6041V22.9909L31.2771 22.0091C31.7948 20.6727 32.6258 19.6909 33.7701 19.0636C34.9416 18.4091 36.3038 18.0818 37.8568 18.0818C39.546 18.0818 41.0172 18.4364 42.2705 19.1455C43.551 19.8545 44.5455 20.85 45.2538 22.1318C45.9622 23.3864 46.3164 24.8591 46.3164 26.55V40.9091H40.1863V27.8591C40.1863 26.9864 40.0092 26.2364 39.655 25.6091C39.328 24.9818 38.8513 24.4909 38.2246 24.1364C37.6252 23.7818 36.9169 23.6045 36.0995 23.6045C35.3094 23.6045 34.601 23.7818 33.9744 24.1364C33.3478 24.4909 32.8573 24.9818 32.5032 25.6091C32.1762 26.2364 32.0127 26.9864 32.0127 27.8591V40.9091H25.8826Z" fill="white"/>
<path d="M11.6473 41.4C9.27695 41.4 7.21994 40.8818 5.47626 39.8455C3.73257 38.7818 2.38394 37.3636 1.43037 35.5909C0.476789 33.8182 0 31.8545 0 29.7C0 27.4636 0.490411 25.4727 1.47123 23.7273C2.4793 21.9818 3.82793 20.6045 5.51713 19.5955C7.20632 18.5864 9.11348 18.0818 11.2386 18.0818C13.0095 18.0818 14.5761 18.3682 15.9384 18.9409C17.3006 19.4864 18.4449 20.2636 19.3712 21.2727C20.3248 22.2818 21.0468 23.4545 21.5372 24.7909C22.0276 26.1 22.2728 27.5318 22.2728 29.0864C22.2728 29.5227 22.2456 29.9591 22.1911 30.3955C22.1639 30.8045 22.0958 31.1591 21.9868 31.4591H5.27192V26.9591H18.513L15.6114 29.0864C15.8839 27.9136 15.8703 26.8773 15.5706 25.9773C15.2709 25.05 14.7396 24.3273 13.9767 23.8091C13.2411 23.2636 12.3284 22.9909 11.2386 22.9909C10.176 22.9909 9.26332 23.25 8.50046 23.7682C7.7376 24.2864 7.16545 25.05 6.78402 26.0591C6.40259 27.0682 6.25274 28.2955 6.33448 29.7409C6.2255 30.9955 6.37535 32.1 6.78402 33.0545C7.1927 34.0091 7.81933 34.7591 8.66393 35.3045C9.50853 35.8227 10.5302 36.0818 11.729 36.0818C12.8188 36.0818 13.7451 35.8636 14.508 35.4273C15.2981 34.9909 15.9111 34.3909 16.347 33.6273L21.2512 35.9591C20.8152 37.05 20.1205 38.0045 19.1669 38.8227C18.2406 39.6409 17.1372 40.2818 15.8566 40.7455C14.5761 41.1818 13.173 41.4 11.6473 41.4Z" fill="white"/>
<path d="M113.347 75.4909C110.895 75.4909 108.756 74.9182 106.931 73.7727C105.132 72.6 103.906 71.0318 103.253 69.0682L107.748 66.9409C108.32 68.1409 109.097 69.0818 110.077 69.7636C111.058 70.4455 112.148 70.7864 113.347 70.7864C114.219 70.7864 114.886 70.6091 115.349 70.2545C115.813 69.9 116.044 69.4091 116.044 68.7818C116.044 68.4545 115.962 68.1818 115.799 67.9636C115.635 67.7182 115.39 67.5 115.063 67.3091C114.736 67.1182 114.328 66.9545 113.837 66.8182L110.037 65.7545C108.211 65.2364 106.808 64.4045 105.827 63.2591C104.846 62.0864 104.356 60.7091 104.356 59.1273C104.356 57.7364 104.71 56.5227 105.419 55.4864C106.127 54.45 107.121 53.6454 108.402 53.0727C109.682 52.4727 111.154 52.1727 112.816 52.1727C114.995 52.1727 116.902 52.6909 118.537 53.7273C120.199 54.7364 121.371 56.1682 122.052 58.0227L117.515 60.15C117.188 59.2227 116.589 58.4864 115.717 57.9409C114.873 57.3682 113.905 57.0818 112.816 57.0818C112.025 57.0818 111.399 57.2455 110.936 57.5727C110.5 57.9 110.282 58.35 110.282 58.9227C110.282 59.2227 110.363 59.4955 110.527 59.7409C110.69 59.9864 110.949 60.2045 111.303 60.3955C111.685 60.5864 112.148 60.7636 112.693 60.9273L116.248 61.9909C118.101 62.5364 119.518 63.3682 120.499 64.4864C121.479 65.5773 121.97 66.9273 121.97 68.5364C121.97 69.9273 121.602 71.1409 120.866 72.1773C120.158 73.2136 119.164 74.0318 117.883 74.6318C116.603 75.2045 115.091 75.4909 113.347 75.4909Z" fill="white"/>
<path d="M113.347 75.4909C110.895 75.4909 108.756 74.9182 106.931 73.7727C105.132 72.6 103.906 71.0318 103.253 69.0682L107.748 66.9409C108.32 68.1409 109.097 69.0818 110.077 69.7636C111.058 70.4455 112.148 70.7864 113.347 70.7864C114.219 70.7864 114.886 70.6091 115.349 70.2545C115.813 69.9 116.044 69.4091 116.044 68.7818C116.044 68.4545 115.962 68.1818 115.799 67.9636C115.635 67.7182 115.39 67.5 115.063 67.3091C114.736 67.1182 114.328 66.9545 113.837 66.8182L110.037 65.7545C108.211 65.2364 106.808 64.4045 105.827 63.2591C104.846 62.0864 104.356 60.7091 104.356 59.1273C104.356 57.7364 104.71 56.5227 105.419 55.4864C106.127 54.45 107.121 53.6454 108.402 53.0727C109.682 52.4727 111.154 52.1727 112.816 52.1727C114.995 52.1727 116.902 52.6909 118.537 53.7273C120.199 54.7364 121.371 56.1682 122.052 58.0227L117.515 60.15C117.188 59.2227 116.589 58.4864 115.717 57.9409C114.873 57.3682 113.905 57.0818 112.816 57.0818C112.025 57.0818 111.399 57.2455 110.936 57.5727C110.5 57.9 110.282 58.35 110.282 58.9227C110.282 59.2227 110.363 59.4955 110.527 59.7409C110.69 59.9864 110.949 60.2045 111.303 60.3955C111.685 60.5864 112.148 60.7636 112.693 60.9273L116.248 61.9909C118.101 62.5364 119.518 63.3682 120.499 64.4864C121.479 65.5773 121.97 66.9273 121.97 68.5364C121.97 69.9273 121.602 71.1409 120.866 72.1773C120.158 73.2136 119.164 74.0318 117.883 74.6318C116.603 75.2045 115.091 75.4909 113.347 75.4909Z" fill="white"/>
<path d="M92.0005 75.4909C89.6302 75.4909 87.5732 74.9727 85.8295 73.9364C84.0858 72.8727 82.7372 71.4545 81.7836 69.6818C80.8301 67.9091 80.3533 65.9455 80.3533 63.7909C80.3533 61.5545 80.8437 59.5636 81.8245 57.8182C82.8326 56.0727 84.1812 54.6955 85.8704 53.6864C87.5596 52.6773 89.4667 52.1727 91.5919 52.1727C93.3628 52.1727 94.9294 52.4591 96.2916 53.0318C97.6539 53.5773 98.7982 54.3545 99.7245 55.3636C100.678 56.3727 101.4 57.5455 101.891 58.8818C102.381 60.1909 102.626 61.6227 102.626 63.1773C102.626 63.6136 102.599 64.05 102.544 64.4864C102.517 64.8955 102.449 65.25 102.34 65.55H85.6252V61.05H98.8663L95.9647 63.1773C96.2371 62.0045 96.2235 60.9682 95.9238 60.0682C95.6241 59.1409 95.0928 58.4182 94.33 57.9C93.5944 57.3545 92.6817 57.0818 91.5919 57.0818C90.5293 57.0818 89.6166 57.3409 88.8537 57.8591C88.0909 58.3773 87.5187 59.1409 87.1373 60.15C86.7559 61.1591 86.606 62.3864 86.6877 63.8318C86.5788 65.0864 86.7286 66.1909 87.1373 67.1455C87.546 68.1 88.1726 68.85 89.0172 69.3955C89.8618 69.9136 90.8835 70.1727 92.0823 70.1727C93.1721 70.1727 94.0984 69.9545 94.8613 69.5182C95.6514 69.0818 96.2644 68.4818 96.7003 67.7182L101.604 70.05C101.169 71.1409 100.474 72.0955 99.5202 72.9136C98.5938 73.7318 97.4904 74.3727 96.2099 74.8364C94.9294 75.2727 93.5263 75.4909 92.0005 75.4909Z" fill="white"/>
<path d="M92.0005 75.4909C89.6302 75.4909 87.5732 74.9727 85.8295 73.9364C84.0858 72.8727 82.7372 71.4545 81.7836 69.6818C80.8301 67.9091 80.3533 65.9455 80.3533 63.7909C80.3533 61.5545 80.8437 59.5636 81.8245 57.8182C82.8326 56.0727 84.1812 54.6955 85.8704 53.6864C87.5596 52.6773 89.4667 52.1727 91.5919 52.1727C93.3628 52.1727 94.9294 52.4591 96.2916 53.0318C97.6539 53.5773 98.7982 54.3545 99.7245 55.3636C100.678 56.3727 101.4 57.5455 101.891 58.8818C102.381 60.1909 102.626 61.6227 102.626 63.1773C102.626 63.6136 102.599 64.05 102.544 64.4864C102.517 64.8955 102.449 65.25 102.34 65.55H85.6252V61.05H98.8663L95.9647 63.1773C96.2371 62.0045 96.2235 60.9682 95.9238 60.0682C95.6241 59.1409 95.0928 58.4182 94.33 57.9C93.5944 57.3545 92.6817 57.0818 91.5919 57.0818C90.5293 57.0818 89.6166 57.3409 88.8537 57.8591C88.0909 58.3773 87.5187 59.1409 87.1373 60.15C86.7559 61.1591 86.606 62.3864 86.6877 63.8318C86.5788 65.0864 86.7286 66.1909 87.1373 67.1455C87.546 68.1 88.1726 68.85 89.0172 69.3955C89.8618 69.9136 90.8835 70.1727 92.0823 70.1727C93.1721 70.1727 94.0984 69.9545 94.8613 69.5182C95.6514 69.0818 96.2644 68.4818 96.7003 67.7182L101.604 70.05C101.169 71.1409 100.474 72.0955 99.5202 72.9136C98.5938 73.7318 97.4904 74.3727 96.2099 74.8364C94.9294 75.2727 93.5263 75.4909 92.0005 75.4909Z" fill="white"/>
<path d="M65.8922 75.4909C63.7126 75.4909 61.7646 74.9727 60.0481 73.9364C58.3317 72.9 56.9694 71.4955 55.9614 69.7227C54.9806 67.95 54.4901 65.9864 54.4901 63.8318C54.4901 61.65 54.9942 59.6864 56.0022 57.9409C57.0103 56.1682 58.3726 54.7636 60.089 53.7273C61.8054 52.6909 63.7262 52.1727 65.8513 52.1727C67.486 52.1727 68.93 52.4864 70.1833 53.1136C71.4638 53.7136 72.4719 54.5727 73.2075 55.6909L72.2675 56.9182V44.0318H78.3977V75H72.6762V70.9091L73.2484 72.1773C72.4855 73.2682 71.4502 74.1 70.1424 74.6727C68.8347 75.2182 67.4179 75.4909 65.8922 75.4909ZM66.6278 69.9682C67.7449 69.9682 68.7257 69.7091 69.5703 69.1909C70.4149 68.6727 71.0688 67.95 71.5319 67.0227C72.0223 66.0955 72.2675 65.0318 72.2675 63.8318C72.2675 62.6318 72.0223 61.5682 71.5319 60.6409C71.0688 59.7136 70.4149 58.9909 69.5703 58.4727C68.7257 57.9545 67.7449 57.6955 66.6278 57.6955C65.5108 57.6955 64.5027 57.9682 63.6036 58.5136C62.7318 59.0318 62.0506 59.7545 61.5602 60.6818C61.0698 61.5818 60.8246 62.6318 60.8246 63.8318C60.8246 65.0318 61.0698 66.0955 61.5602 67.0227C62.0506 67.95 62.7318 68.6727 63.6036 69.1909C64.5027 69.7091 65.5108 69.9682 66.6278 69.9682Z" fill="white"/>
<path d="M65.8922 75.4909C63.7126 75.4909 61.7646 74.9727 60.0481 73.9364C58.3317 72.9 56.9694 71.4955 55.9614 69.7227C54.9806 67.95 54.4901 65.9864 54.4901 63.8318C54.4901 61.65 54.9942 59.6864 56.0022 57.9409C57.0103 56.1682 58.3726 54.7636 60.089 53.7273C61.8054 52.6909 63.7262 52.1727 65.8513 52.1727C67.486 52.1727 68.93 52.4864 70.1833 53.1136C71.4638 53.7136 72.4719 54.5727 73.2075 55.6909L72.2675 56.9182V44.0318H78.3977V75H72.6762V70.9091L73.2484 72.1773C72.4855 73.2682 71.4502 74.1 70.1424 74.6727C68.8347 75.2182 67.4179 75.4909 65.8922 75.4909ZM66.6278 69.9682C67.7449 69.9682 68.7257 69.7091 69.5703 69.1909C70.4149 68.6727 71.0688 67.95 71.5319 67.0227C72.0223 66.0955 72.2675 65.0318 72.2675 63.8318C72.2675 62.6318 72.0223 61.5682 71.5319 60.6409C71.0688 59.7136 70.4149 58.9909 69.5703 58.4727C68.7257 57.9545 67.7449 57.6955 66.6278 57.6955C65.5108 57.6955 64.5027 57.9682 63.6036 58.5136C62.7318 59.0318 62.0506 59.7545 61.5602 60.6818C61.0698 61.5818 60.8246 62.6318 60.8246 63.8318C60.8246 65.0318 61.0698 66.0955 61.5602 67.0227C62.0506 67.95 62.7318 68.6727 63.6036 69.1909C64.5027 69.7091 65.5108 69.9682 66.6278 69.9682Z" fill="white"/>
<path d="M170.271 49.9091C168.555 49.9091 166.961 49.6227 165.49 49.05C164.018 48.4773 162.752 47.6727 161.689 46.6364C160.654 45.6273 159.904 44.4273 159.441 43.0364L165.122 41.0318C165.422 42.0682 166.035 42.8864 166.961 43.4864C167.887 44.0864 168.991 44.3864 170.271 44.3864C171.279 44.3864 172.151 44.1955 172.887 43.8136C173.622 43.4591 174.181 42.9273 174.562 42.2182C174.971 41.5091 175.175 40.6773 175.175 39.7227V34.6091L176.36 36.0818C175.598 37.3364 174.617 38.2773 173.418 38.9045C172.219 39.5045 170.816 39.8045 169.209 39.8045C167.138 39.8045 165.285 39.3409 163.651 38.4136C162.016 37.4591 160.735 36.1636 159.809 34.5273C158.883 32.8636 158.42 30.9818 158.42 28.8818C158.42 26.7818 158.883 24.9273 159.809 23.3182C160.735 21.6818 162.002 20.4 163.61 19.4727C165.217 18.5455 167.043 18.0818 169.086 18.0818C170.694 18.0818 172.097 18.4091 173.295 19.0636C174.494 19.6909 175.516 20.6591 176.36 21.9682L175.584 23.4409V18.5727H181.305V39.7227C181.305 41.6864 180.829 43.4318 179.875 44.9591C178.922 46.5136 177.614 47.7273 175.952 48.6C174.317 49.4727 172.424 49.9091 170.271 49.9091ZM170.067 34.2409C171.102 34.2409 172.001 34.0227 172.764 33.5864C173.527 33.15 174.113 32.5364 174.521 31.7455C174.957 30.9545 175.175 30.0273 175.175 28.9636C175.175 27.9 174.957 26.9727 174.521 26.1818C174.086 25.3636 173.486 24.7364 172.723 24.3C171.96 23.8364 171.075 23.6045 170.067 23.6045C169.032 23.6045 168.105 23.8364 167.288 24.3C166.498 24.7364 165.871 25.3636 165.408 26.1818C164.972 26.9727 164.754 27.9 164.754 28.9636C164.754 30 164.972 30.9136 165.408 31.7045C165.871 32.4955 166.498 33.1227 167.288 33.5864C168.105 34.0227 169.032 34.2409 170.067 34.2409Z" fill="white"/>
<path d="M170.271 49.9091C168.555 49.9091 166.961 49.6227 165.49 49.05C164.018 48.4773 162.752 47.6727 161.689 46.6364C160.654 45.6273 159.904 44.4273 159.441 43.0364L165.122 41.0318C165.422 42.0682 166.035 42.8864 166.961 43.4864C167.887 44.0864 168.991 44.3864 170.271 44.3864C171.279 44.3864 172.151 44.1955 172.887 43.8136C173.622 43.4591 174.181 42.9273 174.562 42.2182C174.971 41.5091 175.175 40.6773 175.175 39.7227V34.6091L176.36 36.0818C175.598 37.3364 174.617 38.2773 173.418 38.9045C172.219 39.5045 170.816 39.8045 169.209 39.8045C167.138 39.8045 165.285 39.3409 163.651 38.4136C162.016 37.4591 160.735 36.1636 159.809 34.5273C158.883 32.8636 158.42 30.9818 158.42 28.8818C158.42 26.7818 158.883 24.9273 159.809 23.3182C160.735 21.6818 162.002 20.4 163.61 19.4727C165.217 18.5455 167.043 18.0818 169.086 18.0818C170.694 18.0818 172.097 18.4091 173.295 19.0636C174.494 19.6909 175.516 20.6591 176.36 21.9682L175.584 23.4409V18.5727H181.305V39.7227C181.305 41.6864 180.829 43.4318 179.875 44.9591C178.922 46.5136 177.614 47.7273 175.952 48.6C174.317 49.4727 172.424 49.9091 170.271 49.9091ZM170.067 34.2409C171.102 34.2409 172.001 34.0227 172.764 33.5864C173.527 33.15 174.113 32.5364 174.521 31.7455C174.957 30.9545 175.175 30.0273 175.175 28.9636C175.175 27.9 174.957 26.9727 174.521 26.1818C174.086 25.3636 173.486 24.7364 172.723 24.3C171.96 23.8364 171.075 23.6045 170.067 23.6045C169.032 23.6045 168.105 23.8364 167.288 24.3C166.498 24.7364 165.871 25.3636 165.408 26.1818C164.972 26.9727 164.754 27.9 164.754 28.9636C164.754 30 164.972 30.9136 165.408 31.7045C165.871 32.4955 166.498 33.1227 167.288 33.5864C168.105 34.0227 169.032 34.2409 170.067 34.2409Z" fill="white"/>
<path d="M134.854 40.9091V18.5727H140.575V22.9909L140.249 22.0091C140.766 20.6727 141.597 19.6909 142.741 19.0636C143.913 18.4091 145.275 18.0818 146.828 18.0818C148.517 18.0818 149.989 18.4364 151.242 19.1455C152.522 19.8545 153.517 20.85 154.225 22.1318C154.934 23.3864 155.288 24.8591 155.288 26.55V40.9091H149.158V27.8591C149.158 26.9864 148.981 26.2364 148.626 25.6091C148.299 24.9818 147.823 24.4909 147.196 24.1364C146.597 23.7818 145.888 23.6045 145.071 23.6045C144.281 23.6045 143.572 23.7818 142.946 24.1364C142.319 24.4909 141.829 24.9818 141.475 25.6091C141.148 26.2364 140.984 26.9864 140.984 27.8591V40.9091H134.854Z" fill="white"/>
<path d="M134.854 40.9091V18.5727H140.575V22.9909L140.249 22.0091C140.766 20.6727 141.597 19.6909 142.741 19.0636C143.913 18.4091 145.275 18.0818 146.828 18.0818C148.517 18.0818 149.989 18.4364 151.242 19.1455C152.522 19.8545 153.517 20.85 154.225 22.1318C154.934 23.3864 155.288 24.8591 155.288 26.55V40.9091H149.158V27.8591C149.158 26.9864 148.981 26.2364 148.626 25.6091C148.299 24.9818 147.823 24.4909 147.196 24.1364C146.597 23.7818 145.888 23.6045 145.071 23.6045C144.281 23.6045 143.572 23.7818 142.946 24.1364C142.319 24.4909 141.829 24.9818 141.475 25.6091C141.148 26.2364 140.984 26.9864 140.984 27.8591V40.9091H134.854Z" fill="white"/>
<path d="M161.354 75V52.6636H167.076V57.0818L166.749 56.1C167.266 54.7636 168.097 53.7818 169.242 53.1545C170.413 52.5 171.775 52.1727 173.328 52.1727C175.018 52.1727 176.489 52.5273 177.742 53.2364C179.023 53.9455 180.017 54.9409 180.725 56.2227C181.434 57.4773 181.788 58.95 181.788 60.6409V75H175.658V61.95C175.658 61.0773 175.481 60.3273 175.126 59.7C174.8 59.0727 174.323 58.5818 173.696 58.2273C173.097 57.8727 172.388 57.6955 171.571 57.6955C170.781 57.6955 170.073 57.8727 169.446 58.2273C168.819 58.5818 168.329 59.0727 167.975 59.7C167.648 60.3273 167.484 61.0773 167.484 61.95V75H161.354Z" fill="white"/>
<path d="M145.807 84C144.09 84 142.496 83.7136 141.025 83.1409C139.554 82.5682 138.287 81.7636 137.224 80.7273C136.189 79.7182 135.44 78.5182 134.977 77.1273L140.657 75.1227C140.957 76.1591 141.57 76.9773 142.496 77.5773C143.423 78.1773 144.526 78.4773 145.807 78.4773C146.815 78.4773 147.686 78.2864 148.422 77.9045C149.158 77.55 149.716 77.0182 150.098 76.3091C150.506 75.6 150.711 74.7682 150.711 73.8136V68.7L151.896 70.1727C151.133 71.4273 150.152 72.3682 148.953 72.9955C147.755 73.5955 146.351 73.8955 144.744 73.8955C142.673 73.8955 140.821 73.4318 139.186 72.5045C137.551 71.55 136.271 70.2546 135.344 68.6182C134.418 66.9546 133.955 65.0727 133.955 62.9727C133.955 60.8727 134.418 59.0182 135.344 57.4091C136.271 55.7727 137.538 54.4909 139.145 53.5636C140.753 52.6364 142.578 52.1727 144.621 52.1727C146.229 52.1727 147.632 52.5 148.831 53.1545C150.03 53.7818 151.051 54.75 151.896 56.0591L151.119 57.5318V52.6636H156.841V73.8136C156.841 75.7773 156.364 77.5227 155.41 79.05C154.457 80.6045 153.149 81.8182 151.487 82.6909C149.852 83.5636 147.959 84 145.807 84ZM145.602 68.3318C146.638 68.3318 147.537 68.1136 148.299 67.6773C149.062 67.2409 149.648 66.6273 150.057 65.8364C150.493 65.0454 150.711 64.1182 150.711 63.0545C150.711 61.9909 150.493 61.0636 150.057 60.2727C149.621 59.4545 149.021 58.8273 148.259 58.3909C147.496 57.9273 146.61 57.6955 145.602 57.6955C144.567 57.6955 143.641 57.9273 142.823 58.3909C142.033 58.8273 141.406 59.4545 140.943 60.2727C140.507 61.0636 140.289 61.9909 140.289 63.0545C140.289 64.0909 140.507 65.0045 140.943 65.7955C141.406 66.5864 142.033 67.2136 142.823 67.6773C143.641 68.1136 144.567 68.3318 145.602 68.3318Z" fill="white"/>
<path d="M202.372 52.2273C202.372 55.6818 203.378 58.4455 205.391 60.5182C207.405 62.5333 209.82 63.5409 212.639 63.5409C215.515 63.5409 217.873 62.5333 219.713 60.5182C221.554 58.4455 222.474 55.6818 222.474 52.2273V16.7318H240.42V52.2273C240.42 57.5242 239.269 62.1591 236.969 66.1318C234.725 70.047 231.504 73.0985 227.306 75.2864C223.164 77.4167 218.275 78.4818 212.639 78.4818C206.944 78.4818 201.969 77.4167 197.713 75.2864C193.514 73.0985 190.236 70.047 187.877 66.1318C185.577 62.1591 184.426 57.5242 184.426 52.2273V16.7318H202.372V52.2273Z" fill="white"/>
<path d="M236.069 16.7318H256.948L266.956 32.5364L277.051 16.7318H298.188L278.431 45.6636L300 77.2727H278.431L266.956 60L255.654 77.2727H234.689L256.085 46.4409L236.069 16.7318Z" fill="white"/>
</svg>
